<mxfile host="app.diagrams.net" modified="2021-04-08T07:04:06.652Z" agent="5.0 (Macintosh; Intel Mac OS X 10_15_6) AppleWebKit/605.1.15 (KHTML, like Gecko) Version/14.0.2 Safari/605.1.15" etag="07jlVf075iBXkd5SJcZM" version="14.5.8" type="github">
  <diagram id="BJmd0_GVHUUEp9m8JI1I" name="Page-1">
    <mxGraphModel dx="946" dy="571" grid="1" gridSize="10" guides="1" tooltips="1" connect="1" arrows="1" fold="1" page="1" pageScale="1" pageWidth="827" pageHeight="1169" background="#ffffff" math="0" shadow="0">
      <root>
        <mxCell id="0" />
        <mxCell id="1" parent="0" />
        <mxCell id="H-8Li0LHuUZClaRvdSuq-1" value="" style="endArrow=none;html=1;" edge="1" parent="1" target="H-8Li0LHuUZClaRvdSuq-2">
          <mxGeometry width="50" height="50" relative="1" as="geometry">
            <mxPoint x="-620" y="-240" as="sourcePoint" />
            <mxPoint x="-570" y="-290" as="targetPoint" />
          </mxGeometry>
        </mxCell>
        <mxCell id="H-8Li0LHuUZClaRvdSuq-2" value="" style="group" vertex="1" connectable="0" parent="1">
          <mxGeometry x="NaN" y="NaN" width="691.5" height="178" as="geometry" />
        </mxCell>
        <mxCell id="H-8Li0LHuUZClaRvdSuq-3" value="" style="shape=image;html=1;verticalAlign=top;verticalLabelPosition=bottom;labelBackgroundColor=#ffffff;imageAspect=0;aspect=fixed;image=https://cdn3.iconfinder.com/data/icons/construction-293/32/Construction_construction_ladder-128.png;strokeWidth=3;fontSize=12;" vertex="1" parent="H-8Li0LHuUZClaRvdSuq-2">
          <mxGeometry x="61.75" y="50" width="128" height="128" as="geometry" />
        </mxCell>
        <mxCell id="H-8Li0LHuUZClaRvdSuq-4" value="&lt;font style=&quot;font-size: 23px&quot;&gt;&lt;b&gt;梯子&lt;/b&gt;&lt;/font&gt;&lt;br&gt;&lt;b&gt;Ladder&lt;/b&gt;" style="text;html=1;strokeColor=none;fillColor=none;align=center;verticalAlign=middle;whiteSpace=wrap;rounded=0;fontSize=12;" vertex="1" parent="H-8Li0LHuUZClaRvdSuq-2">
          <mxGeometry y="104" width="50" height="20" as="geometry" />
        </mxCell>
        <mxCell id="H-8Li0LHuUZClaRvdSuq-5" value="" style="endArrow=none;html=1;strokeWidth=6;fontSize=12;exitX=0.5;exitY=0;exitDx=0;exitDy=0;" edge="1" parent="H-8Li0LHuUZClaRvdSuq-2" source="H-8Li0LHuUZClaRvdSuq-3">
          <mxGeometry width="50" height="50" relative="1" as="geometry">
            <mxPoint x="265" y="50" as="sourcePoint" />
            <mxPoint x="637.5" y="130" as="targetPoint" />
            <Array as="points">
              <mxPoint x="537.75" y="50" />
              <mxPoint x="577.5" y="130" />
            </Array>
          </mxGeometry>
        </mxCell>
        <mxCell id="H-8Li0LHuUZClaRvdSuq-6" value="&lt;span style=&quot;font-size: 23px&quot;&gt;&lt;b&gt;金手指&lt;/b&gt;&lt;/span&gt;&lt;br&gt;&lt;b&gt;Goldfinger&lt;/b&gt;" style="text;html=1;strokeColor=none;fillColor=none;align=center;verticalAlign=middle;whiteSpace=wrap;rounded=0;fontSize=12;" vertex="1" parent="H-8Li0LHuUZClaRvdSuq-2">
          <mxGeometry x="138.5" width="71.5" height="20" as="geometry" />
        </mxCell>
        <mxCell id="H-8Li0LHuUZClaRvdSuq-7" value="&lt;span style=&quot;font-size: 23px&quot;&gt;&lt;b&gt;案例&lt;/b&gt;&lt;/span&gt;&lt;br&gt;&lt;b&gt;Argument&lt;/b&gt;" style="text;html=1;strokeColor=none;fillColor=none;align=center;verticalAlign=middle;whiteSpace=wrap;rounded=0;fontSize=12;" vertex="1" parent="H-8Li0LHuUZClaRvdSuq-2">
          <mxGeometry x="420" width="71.5" height="20" as="geometry" />
        </mxCell>
        <mxCell id="H-8Li0LHuUZClaRvdSuq-8" value="&lt;span style=&quot;font-size: 23px&quot;&gt;&lt;b&gt;行动&lt;/b&gt;&lt;/span&gt;&lt;br&gt;&lt;b&gt;Action&lt;/b&gt;" style="text;html=1;strokeColor=none;fillColor=none;align=center;verticalAlign=middle;whiteSpace=wrap;rounded=0;fontSize=12;" vertex="1" parent="H-8Li0LHuUZClaRvdSuq-2">
          <mxGeometry x="620" y="84" width="71.5" height="20" as="geometry" />
        </mxCell>
        <mxCell id="H-8Li0LHuUZClaRvdSuq-10" value="" style="shape=image;html=1;verticalAlign=top;verticalLabelPosition=bottom;labelBackgroundColor=#ffffff;imageAspect=0;aspect=fixed;image=https://cdn4.iconfinder.com/data/icons/transportation-190/1000/ship_icebreaker_ship_iceboat_iceberg_icebreaker_ice_boat-128.png" vertex="1" parent="1">
          <mxGeometry x="300" y="410" width="128" height="128" as="geometry" />
        </mxCell>
        <mxCell id="H-8Li0LHuUZClaRvdSuq-14" value="" style="shape=image;html=1;verticalAlign=top;verticalLabelPosition=bottom;labelBackgroundColor=#ffffff;imageAspect=0;aspect=fixed;image=https://cdn2.iconfinder.com/data/icons/whcompare-isometric-web-hosting-servers/50/connected-globe-128.png" vertex="1" parent="1">
          <mxGeometry x="560" y="420" width="128" height="128" as="geometry" />
        </mxCell>
      </root>
    </mxGraphModel>
  </diagram>
</mxfile>
